<?xml version="1.0" encoding="UTF-8" standalone="no"?>
<!DOCTYPE svg PUBLIC "-//W3C//DTD SVG 1.1//EN" "http://www.w3.org/Graphics/SVG/1.1/DTD/svg11.dtd">
<!-- 由 Microsoft Visio, SVG Export 生成 abosulate.svg Page-1 -->
<svg xmlns="http://www.w3.org/2000/svg" xmlns:xlink="http://www.w3.org/1999/xlink" xmlns:ev="http://www.w3.org/2001/xml-events"
		xmlns:v="http://schemas.microsoft.com/visio/2003/SVGExtensions/" width="11.6929in" height="8.26772in"
		viewBox="0 0 841.89 595.276" xml:space="preserve" color-interpolation-filters="sRGB" class="st13">
	<v:documentProperties v:langID="2052" v:metric="true" v:viewMarkup="false">
		<v:userDefs>
			<v:ud v:nameU="msvSubprocessMaster" v:prompt="" v:val="VT4(Rectangle)"/>
			<v:ud v:nameU="msvNoAutoConnect" v:val="VT0(1):26"/>
		</v:userDefs>
	</v:documentProperties>

	<style type="text/css">
	<![CDATA[
		.st1 {fill:#ffffff;stroke:#000000;stroke-dasharray:5.25,3.75;stroke-width:0.75}
		.st2 {visibility:visible}
		.st3 {fill:#5b9bd5;fill-opacity:0.22;filter:url(#filter_2);stroke:#5b9bd5;stroke-opacity:0.22}
		.st4 {fill:#ffffff;stroke:#000000;stroke-width:0.25}
		.st5 {fill:#000000;font-family:Calibri;font-size:0.833336em}
		.st6 {stroke:#000000;stroke-linecap:round;stroke-linejoin:round;stroke-width:1}
		.st7 {stroke:#000000;stroke-width:0.75}
		.st8 {marker-end:url(#mrkr4-60);stroke:#000000;stroke-linecap:round;stroke-linejoin:round;stroke-width:1}
		.st9 {fill:#000000;fill-opacity:1;stroke:#000000;stroke-opacity:1;stroke-width:0.28409090909091}
		.st10 {fill:none;stroke:#ffffff;stroke-width:0.25}
		.st11 {fill:#000000;font-family:Calibri;font-size:1.00001em}
		.st12 {fill:none;stroke:none;stroke-width:0.25}
		.st13 {fill:none;fill-rule:evenodd;font-size:12px;overflow:visible;stroke-linecap:square;stroke-miterlimit:3}
	]]>
	</style>

	<defs id="Markers">
		<g id="lend4">
			<path d="M 2 1 L 0 0 L 2 -1 L 2 1 " style="stroke:none"/>
		</g>
		<marker id="mrkr4-60" class="st9" v:arrowType="4" v:arrowSize="2" v:setback="7.04" refX="-7.04" orient="auto"
				markerUnits="strokeWidth" overflow="visible">
			<use xlink:href="#lend4" transform="scale(-3.52,-3.52) "/>
		</marker>
	</defs>
	<defs id="Filters">
		<filter id="filter_2">
			<feGaussianBlur stdDeviation="2"/>
		</filter>
	</defs>
	<g v:mID="0" v:index="1" v:groupContext="foregroundPage">
		<v:userDefs>
			<v:ud v:nameU="msvThemeOrder" v:val="VT0(0):26"/>
		</v:userDefs>
		<title>页-1</title>
		<v:pageProperties v:drawingScale="0.0393701" v:pageScale="0.0393701" v:drawingUnits="24" v:shadowOffsetX="8.50394"
				v:shadowOffsetY="-8.50394"/>
		<v:layer v:name="连接线" v:index="0"/>
		<g id="shape46-1" v:mID="46" v:groupContext="shape" transform="translate(79.3701,-175.748)">
			<title>工作表.46</title>
			<path d="M0 300.47 L334.49 300.47 L334.49 595.28 L0 595.28 L0 300.47 Z" class="st1"/>
		</g>
		<g id="shape1-3" v:mID="1" v:groupContext="shape" transform="translate(130.394,-413.858)">
			<title>矩形</title>
			<desc>tmp_regopa</desc>
			<v:userDefs>
				<v:ud v:nameU="visVersion" v:val="VT0(15):26"/>
			</v:userDefs>
			<v:textBlock v:margins="rect(4,4,4,4)" v:tabSpace="42.5197"/>
			<v:textRect cx="34.0157" cy="583.937" width="68.04" height="22.6772"/>
			<g id="shadow1-4" v:groupContext="shadow" v:shadowOffsetX="0.345598" v:shadowOffsetY="-1.97279" v:shadowType="1"
					transform="matrix(1,0,0,1,0.345598,1.97279)" class="st2">
				<rect x="0" y="572.598" width="68.0315" height="22.6772" class="st3"/>
			</g>
			<rect x="0" y="572.598" width="68.0315" height="22.6772" class="st4"/>
			<text x="8.99" y="586.94" class="st5" v:langID="2052"><v:paragraph v:horizAlign="1"/><v:tabList/>tmp_regopa  </text>		</g>
		<g id="shape2-9" v:mID="2" v:groupContext="shape" transform="translate(214.016,-413.858)">
			<title>矩形.2</title>
			<desc>tmp_regopb</desc>
			<v:userDefs>
				<v:ud v:nameU="visVersion" v:val="VT0(15):26"/>
			</v:userDefs>
			<v:textBlock v:margins="rect(4,4,4,4)" v:tabSpace="42.5197"/>
			<v:textRect cx="34.0157" cy="583.937" width="68.04" height="22.6772"/>
			<g id="shadow2-10" v:groupContext="shadow" v:shadowOffsetX="0.345598" v:shadowOffsetY="-1.97279" v:shadowType="1"
					transform="matrix(1,0,0,1,0.345598,1.97279)" class="st2">
				<rect x="0" y="572.598" width="68.0315" height="22.6772" class="st3"/>
			</g>
			<rect x="0" y="572.598" width="68.0315" height="22.6772" class="st4"/>
			<text x="8.75" y="586.94" class="st5" v:langID="2052"><v:paragraph v:horizAlign="1"/><v:tabList/>tmp_regopb  </text>		</g>
		<g id="shape3-15" v:mID="3" v:groupContext="shape" transform="translate(395.508,867.402) rotate(180)">
			<title>梯形</title>
			<v:userDefs>
				<v:ud v:nameU="visVersion" v:prompt="" v:val="VT0(15):26"/>
			</v:userDefs>
			<g id="shadow3-16" v:groupContext="shadow" v:shadowOffsetX="0.345598" v:shadowOffsetY="-1.97279" v:shadowType="1"
					transform="matrix(1,0,0,1,-0.345598,-1.97279)" class="st2">
				<path d="M0 595.28 L47.29 595.28 L33.85 572.6 L13.44 572.6 L0 595.28 Z" class="st3"/>
			</g>
			<path d="M0 595.28 L47.29 595.28 L33.85 572.6 L13.44 572.6 L0 595.28 Z" class="st4"/>
		</g>
		<g id="shape4-20" v:mID="4" v:groupContext="shape" transform="translate(326.954,839.055) rotate(180)">
			<title>梯形.4</title>
			<v:userDefs>
				<v:ud v:nameU="visVersion" v:prompt="" v:val="VT0(15):26"/>
			</v:userDefs>
			<g id="shadow4-21" v:groupContext="shadow" v:shadowOffsetX="0.345598" v:shadowOffsetY="-1.97279" v:shadowType="1"
					transform="matrix(1,0,0,1,-0.345598,-1.97279)" class="st2">
				<path d="M0 595.28 L47.29 595.28 L33.85 572.6 L13.44 572.6 L0 595.28 Z" class="st3"/>
			</g>
			<path d="M0 595.28 L47.29 595.28 L33.85 572.6 L13.44 572.6 L0 595.28 Z" class="st4"/>
		</g>
		<g id="shape5-25" v:mID="5" v:groupContext="shape" transform="translate(174.519,-375.591)">
			<title>工作表.5</title>
			<path d="M0 595.28 L20.93 595.28" class="st6"/>
		</g>
		<g id="shape7-28" v:mID="7" v:groupContext="shape" transform="translate(220.013,-374.996)">
			<title>工作表.7</title>
			<path d="M0 595.28 L20.93 595.28" class="st6"/>
		</g>
		<g id="shape8-31" v:mID="8" v:groupContext="shape" transform="translate(195.451,-362.194)">
			<title>工作表.8</title>
			<path d="M0 581.88 L12.56 595.28 L25.12 581.88" class="st7"/>
		</g>
		<g id="shape9-34" v:mID="9" v:groupContext="shape" transform="translate(668.56,634.403) rotate(134.082)">
			<title>工作表.9</title>
			<path d="M0 595.28 L35.31 595.28" class="st6"/>
		</g>
		<g id="shape10-37" v:mID="10" v:groupContext="shape" transform="translate(174.519,-349.635)">
			<title>工作表.10</title>
			<path d="M0 569.32 L25.12 595.28 L41.88 595.26" class="st7"/>
		</g>
		<g id="shape11-40" v:mID="11" v:groupContext="shape" transform="translate(306.945,-269.291)">
			<title>工作表.11</title>
			<path d="M0 595.28 L20.93 595.28" class="st6"/>
		</g>
		<g id="shape12-43" v:mID="12" v:groupContext="shape" transform="translate(352.438,-268.697)">
			<title>工作表.12</title>
			<path d="M0 595.28 L20.93 595.28" class="st6"/>
		</g>
		<g id="shape13-46" v:mID="13" v:groupContext="shape" transform="translate(327.877,-255.895)">
			<title>工作表.13</title>
			<path d="M0 581.88 L12.56 595.28 L25.12 581.88" class="st7"/>
		</g>
		<g id="shape14-49" v:mID="14" v:groupContext="shape" transform="translate(800.985,740.702) rotate(134.082)">
			<title>工作表.14</title>
			<path d="M0 595.28 L35.31 595.28" class="st6"/>
		</g>
		<g id="shape15-52" v:mID="15" v:groupContext="shape" transform="translate(306.945,-243.336)">
			<title>工作表.15</title>
			<path d="M0 569.32 L25.12 595.28 L41.88 595.26" class="st7"/>
		</g>
		<g id="shape16-55" v:mID="16" v:groupContext="shape" v:layerMember="0" transform="translate(164.409,-413.858)">
			<title>动态连接线</title>
			<path d="M0 595.28 L0 619.37 L22.68 619.37 L22.68 626.5" class="st8"/>
		</g>
		<g id="shape17-61" v:mID="17" v:groupContext="shape" v:layerMember="0" transform="translate(248.031,-413.858)">
			<title>动态连接线.17</title>
			<path d="M0 595.28 L0 619.37 L-21.26 619.37 L-21.26 627.1" class="st8"/>
		</g>
		<g id="shape18-66" v:mID="18" v:groupContext="shape" v:layerMember="0" transform="translate(164.409,-436.535)">
			<title>动态连接线.18</title>
			<path d="M0 595.28 L0 572.78 L214.17 572.78 L214.17 701.62" class="st8"/>
		</g>
		<g id="shape19-71" v:mID="19" v:groupContext="shape" v:layerMember="0" transform="translate(248.031,-436.535)">
			<title>动态连接线.19</title>
			<path d="M0 595.28 L0 579.64 L113.39 579.64 L113.39 701.62" class="st8"/>
		</g>
		<g id="shape20-76" v:mID="20" v:groupContext="shape" v:layerMember="0" transform="translate(164.409,-413.858)">
			<title>动态连接线.20</title>
			<path d="M0 595.28 L0 605.91 L81.26 605.91 A2.3622 2.3622 0 1 1 85.98 605.91 L130.39 605.91 L130.39 650.6" class="st8"/>
		</g>
		<g id="shape21-81" v:mID="21" v:groupContext="shape" v:layerMember="0" transform="translate(282.047,-425.197)">
			<title>动态连接线.21</title>
			<path d="M0 595.28 L27.98 595.28 L27.98 661.94" class="st8"/>
		</g>
		<g id="shape22-86" v:mID="22" v:groupContext="shape" v:layerMember="0" transform="translate(207.568,-351.987)">
			<title>动态连接线.22</title>
			<path d="M0 597.62 L0 607.11 L71.77 607.11" class="st8"/>
		</g>
		<g id="shape23-91" v:mID="23" v:groupContext="shape" v:layerMember="0" transform="translate(207.568,-349.643)">
			<title>动态连接线.23</title>
			<path d="M0 595.28 L0 633.11 L108.97 633.11 A2.3622 2.3622 0 0 1 113.69 633.11 L140.33 633.11" class="st8"/>
		</g>
		<g id="shape25-96" v:mID="25" v:groupContext="shape" v:layerMember="0" transform="translate(374.173,-300.472)">
			<title>动态连接线.25</title>
			<path d="M-1.42 595.28 L-1.42 615.48 L-12.76 615.48 L-12.76 620.01" class="st8"/>
		</g>
		<g id="shape26-101" v:mID="26" v:groupContext="shape" v:layerMember="0" transform="translate(304.724,-328.819)">
			<title>动态连接线.26</title>
			<path d="M0 595.28 L0 603.14 L14.17 603.14 L14.17 647.76" class="st8"/>
		</g>
		<g id="shape27-106" v:mID="27" v:groupContext="shape" transform="translate(217.964,-282.047)">
			<title>矩形.27</title>
			<desc>regopa</desc>
			<v:userDefs>
				<v:ud v:nameU="visVersion" v:val="VT0(15):26"/>
			</v:userDefs>
			<v:textBlock v:margins="rect(4,4,4,4)" v:tabSpace="42.5197"/>
			<v:textRect cx="34.0157" cy="583.937" width="68.04" height="22.6772"/>
			<g id="shadow27-107" v:groupContext="shadow" v:shadowOffsetX="0.345598" v:shadowOffsetY="-1.97279" v:shadowType="1"
					transform="matrix(1,0,0,1,0.345598,1.97279)" class="st2">
				<rect x="0" y="572.598" width="68.0315" height="22.6772" class="st3"/>
			</g>
			<rect x="0" y="572.598" width="68.0315" height="22.6772" class="st4"/>
			<text x="19.77" y="586.94" class="st5" v:langID="2052"><v:paragraph v:horizAlign="1"/><v:tabList/>regopa  </text>		</g>
		<g id="shape28-112" v:mID="28" v:groupContext="shape" transform="translate(130.394,-282.047)">
			<title>矩形.28</title>
			<desc>regopb</desc>
			<v:userDefs>
				<v:ud v:nameU="visVersion" v:val="VT0(15):26"/>
			</v:userDefs>
			<v:textBlock v:margins="rect(4,4,4,4)" v:tabSpace="42.5197"/>
			<v:textRect cx="34.0157" cy="583.937" width="68.04" height="22.6772"/>
			<g id="shadow28-113" v:groupContext="shadow" v:shadowOffsetX="0.345598" v:shadowOffsetY="-1.97279" v:shadowType="1"
					transform="matrix(1,0,0,1,0.345598,1.97279)" class="st2">
				<rect x="0" y="572.598" width="68.0315" height="22.6772" class="st3"/>
			</g>
			<rect x="0" y="572.598" width="68.0315" height="22.6772" class="st4"/>
			<text x="19.54" y="586.94" class="st5" v:langID="2052"><v:paragraph v:horizAlign="1"/><v:tabList/>regopb  </text>		</g>
		<g id="shape29-118" v:mID="29" v:groupContext="shape" transform="translate(226.772,952.441) rotate(180)">
			<title>梯形.29</title>
			<v:userDefs>
				<v:ud v:nameU="visVersion" v:prompt="" v:val="VT0(15):26"/>
			</v:userDefs>
			<g id="shadow29-119" v:groupContext="shadow" v:shadowOffsetX="0.345598" v:shadowOffsetY="-1.97279" v:shadowType="1"
					transform="matrix(1,0,0,1,-0.345598,-1.97279)" class="st2">
				<path d="M0 595.28 L47.29 595.28 L33.85 572.6 L13.44 572.6 L0 595.28 Z" class="st3"/>
			</g>
			<path d="M0 595.28 L47.29 595.28 L33.85 572.6 L13.44 572.6 L0 595.28 Z" class="st4"/>
		</g>
		<g id="shape33-123" v:mID="33" v:groupContext="shape" v:layerMember="0" transform="translate(151.654,-219.685)">
			<title>动态连接线.33</title>
			<path d="M0 588.19 L27.51 588.19" class="st8"/>
		</g>
		<g id="shape34-128" v:mID="34" v:groupContext="shape" transform="translate(90.1865,-218.11)">
			<title>工作表.34</title>
			<desc>Camp_flag</desc>
			<v:textBlock v:margins="rect(4,4,4,4)" v:tabSpace="42.5197"/>
			<v:textRect cx="34.0157" cy="585.276" width="68.04" height="20"/>
			<rect x="0" y="575.276" width="68.0315" height="20" class="st10"/>
			<text x="8.1" y="588.88" class="st11" v:langID="2052"><v:paragraph v:horizAlign="1"/><v:tabList/>Camp_flag</text>		</g>
		<g id="shape38-131" v:mID="38" v:groupContext="shape" v:layerMember="0" transform="translate(164.409,-282.047)">
			<title>动态连接线.38</title>
			<path d="M0 595.28 L0 605.91 L29.76 605.91 L29.76 632.17" class="st8"/>
		</g>
		<g id="shape39-136" v:mID="39" v:groupContext="shape" v:layerMember="0" transform="translate(251.979,-282.047)">
			<title>动态连接线.39</title>
			<path d="M0 595.28 L0 605.91 L-42.13 605.91 L-42.13 632.17" class="st8"/>
		</g>
		<g id="shape40-141" v:mID="40" v:groupContext="shape" v:layerMember="0" transform="translate(341.07,-243.345)">
			<title>动态连接线.40</title>
			<path d="M0 595.28 L0 607.73 L-44.44 607.73 L-44.44 545.24 L-48.03 545.24" class="st8"/>
		</g>
		<g id="shape41-146" v:mID="41" v:groupContext="shape" v:layerMember="0" transform="translate(205.512,-215.433)">
			<title>动态连接线.41</title>
			<path d="M0 595.28 L0 605.91 L-109.7 605.91 L-109.7 517.32 L-82.16 517.32" class="st8"/>
		</g>
		<g id="shape42-151" v:mID="42" v:groupContext="shape" transform="translate(187.07,-349.635)">
			<title>工作表.42</title>
			<desc>CMP</desc>
			<v:textBlock v:margins="rect(4,4,4,4)" v:tabSpace="42.5197"/>
			<v:textRect cx="20.9409" cy="585.276" width="41.89" height="20"/>
			<rect x="0" y="575.276" width="41.8817" height="20" class="st12"/>
			<text x="9.51" y="588.88" class="st11" v:langID="2052"><v:paragraph v:horizAlign="1"/><v:tabList/>CMP</text>		</g>
		<g id="shape43-154" v:mID="43" v:groupContext="shape" transform="translate(285.072,-330.157)">
			<title>工作表.43</title>
			<desc>MUX</desc>
			<v:textBlock v:margins="rect(4,4,4,4)" v:tabSpace="42.5197"/>
			<v:textRect cx="20.9409" cy="585.276" width="41.89" height="20"/>
			<rect x="0" y="575.276" width="41.8817" height="20" class="st12"/>
			<text x="8.85" y="588.88" class="st11" v:langID="2052"><v:paragraph v:horizAlign="1"/><v:tabList/>MUX</text>		</g>
		<g id="shape44-157" v:mID="44" v:groupContext="shape" transform="translate(348.214,-303.15)">
			<title>工作表.44</title>
			<desc>MUX</desc>
			<v:textBlock v:margins="rect(4,4,4,4)" v:tabSpace="42.5197"/>
			<v:textRect cx="20.9409" cy="585.276" width="41.89" height="20"/>
			<rect x="0" y="575.276" width="41.8817" height="20" class="st12"/>
			<text x="8.85" y="588.88" class="st11" v:langID="2052"><v:paragraph v:horizAlign="1"/><v:tabList/>MUX</text>		</g>
		<g id="shape45-160" v:mID="45" v:groupContext="shape" transform="translate(182.184,-218.11)">
			<title>工作表.45</title>
			<desc>MUX</desc>
			<v:textBlock v:margins="rect(4,4,4,4)" v:tabSpace="42.5197"/>
			<v:textRect cx="20.9409" cy="585.276" width="41.89" height="20"/>
			<rect x="0" y="575.276" width="41.8817" height="20" class="st12"/>
			<text x="8.85" y="588.88" class="st11" v:langID="2052"><v:paragraph v:horizAlign="1"/><v:tabList/>MUX</text>		</g>
	</g>
</svg>
