<?xml version="1.0" encoding="UTF-8" standalone="no"?>
<!DOCTYPE svg PUBLIC "-//W3C//DTD SVG 1.1//EN" "http://www.w3.org/Graphics/SVG/1.1/DTD/svg11.dtd">
<!-- 由 Microsoft Visio, SVG Export 生成 camp_switch.svg Page-1 -->
<svg xmlns="http://www.w3.org/2000/svg" xmlns:xlink="http://www.w3.org/1999/xlink" xmlns:ev="http://www.w3.org/2001/xml-events"
		xmlns:v="http://schemas.microsoft.com/visio/2003/SVGExtensions/" width="11.6929in" height="8.26772in"
		viewBox="0 0 841.89 595.276" xml:space="preserve" color-interpolation-filters="sRGB" class="st15">
	<v:documentProperties v:langID="2052" v:metric="true" v:viewMarkup="false">
		<v:userDefs>
			<v:ud v:nameU="msvSubprocessMaster" v:prompt="" v:val="VT4(Rectangle)"/>
			<v:ud v:nameU="msvNoAutoConnect" v:val="VT0(1):26"/>
		</v:userDefs>
	</v:documentProperties>

	<style type="text/css">
	<![CDATA[
		.st1 {fill:#ffffff;stroke:#000000;stroke-dasharray:5.25,3.75;stroke-width:0.75}
		.st2 {visibility:visible}
		.st3 {fill:#5b9bd5;fill-opacity:0.22;filter:url(#filter_2);stroke:#5b9bd5;stroke-opacity:0.22}
		.st4 {fill:#ffffff;stroke:#000000;stroke-width:0.25}
		.st5 {fill:#000000;font-family:Calibri;font-size:0.833336em}
		.st6 {fill:#ffffff;stroke:#000000;stroke-width:1}
		.st7 {marker-end:url(#mrkr4-37);stroke:#000000;stroke-linecap:round;stroke-linejoin:round;stroke-width:1}
		.st8 {fill:#000000;fill-opacity:1;stroke:#000000;stroke-opacity:1;stroke-width:0.28409090909091}
		.st9 {stroke:#000000;stroke-linecap:round;stroke-linejoin:round;stroke-width:1}
		.st10 {stroke:#000000;stroke-width:0.75}
		.st11 {marker-end:url(#mrkr4-107);stroke:#000000;stroke-linecap:round;stroke-linejoin:round;stroke-width:2.25}
		.st12 {fill:#000000;fill-opacity:1;stroke:#000000;stroke-opacity:1;stroke-width:0.47169811320755}
		.st13 {fill:none;stroke:#ffffff;stroke-width:0.25}
		.st14 {fill:#000000;font-family:Calibri;font-size:1.00001em}
		.st15 {fill:none;fill-rule:evenodd;font-size:12px;overflow:visible;stroke-linecap:square;stroke-miterlimit:3}
	]]>
	</style>

	<defs id="Markers">
		<g id="lend4">
			<path d="M 2 1 L 0 0 L 2 -1 L 2 1 " style="stroke:none"/>
		</g>
		<marker id="mrkr4-37" class="st8" v:arrowType="4" v:arrowSize="2" v:setback="7.04" refX="-7.04" orient="auto"
				markerUnits="strokeWidth" overflow="visible">
			<use xlink:href="#lend4" transform="scale(-3.52,-3.52) "/>
		</marker>
		<marker id="mrkr4-107" class="st12" v:arrowType="4" v:arrowSize="2" v:setback="4.24" refX="-4.24" orient="auto"
				markerUnits="strokeWidth" overflow="visible">
			<use xlink:href="#lend4" transform="scale(-2.12,-2.12) "/>
		</marker>
	</defs>
	<defs id="Filters">
		<filter id="filter_2">
			<feGaussianBlur stdDeviation="2"/>
		</filter>
	</defs>
	<g v:mID="0" v:index="1" v:groupContext="foregroundPage">
		<v:userDefs>
			<v:ud v:nameU="msvThemeOrder" v:val="VT0(0):26"/>
		</v:userDefs>
		<title>页-1</title>
		<v:pageProperties v:drawingScale="0.0393701" v:pageScale="0.0393701" v:drawingUnits="24" v:shadowOffsetX="8.50394"
				v:shadowOffsetY="-8.50394"/>
		<v:layer v:name="连接线" v:index="0"/>
		<g id="shape42-1" v:mID="42" v:groupContext="shape" transform="translate(134.646,-236.83)">
			<title>工作表.42</title>
			<path d="M0 328.96 L307.47 328.96 L307.47 595.28 L0 595.28 L0 328.96 Z" class="st1"/>
		</g>
		<g id="shape1-3" v:mID="1" v:groupContext="shape" transform="translate(141.732,-460.63)">
			<title>矩形</title>
			<desc>regopa</desc>
			<v:userDefs>
				<v:ud v:nameU="visVersion" v:val="VT0(15):26"/>
			</v:userDefs>
			<v:textBlock v:margins="rect(4,4,4,4)" v:tabSpace="42.5197"/>
			<v:textRect cx="23.2029" cy="586.574" width="46.41" height="17.4022"/>
			<g id="shadow1-4" v:groupContext="shadow" v:shadowOffsetX="0.345598" v:shadowOffsetY="-1.97279" v:shadowType="1"
					transform="matrix(1,0,0,1,0.345598,1.97279)" class="st2">
				<rect x="0" y="577.873" width="46.4059" height="17.4022" class="st3"/>
			</g>
			<rect x="0" y="577.873" width="46.4059" height="17.4022" class="st4"/>
			<text x="8.96" y="589.57" class="st5" v:langID="2052"><v:paragraph v:horizAlign="1"/><v:tabList/>regopa</text>		</g>
		<g id="shape2-9" v:mID="2" v:groupContext="shape" transform="translate(192.23,-460.63)">
			<title>矩形.2</title>
			<desc>regopb</desc>
			<v:userDefs>
				<v:ud v:nameU="visVersion" v:val="VT0(15):26"/>
			</v:userDefs>
			<v:textBlock v:margins="rect(4,4,4,4)" v:tabSpace="42.5197"/>
			<v:textRect cx="23.2029" cy="586.574" width="46.41" height="17.4022"/>
			<g id="shadow2-10" v:groupContext="shadow" v:shadowOffsetX="0.345598" v:shadowOffsetY="-1.97279" v:shadowType="1"
					transform="matrix(1,0,0,1,0.345598,1.97279)" class="st2">
				<rect x="0" y="577.873" width="46.4059" height="17.4022" class="st3"/>
			</g>
			<rect x="0" y="577.873" width="46.4059" height="17.4022" class="st4"/>
			<text x="8.73" y="589.57" class="st5" v:langID="2052"><v:paragraph v:horizAlign="1"/><v:tabList/>regopb</text>		</g>
		<g id="shape3-15" v:mID="3" v:groupContext="shape" transform="translate(250.866,-246.417)">
			<title>矩形.3</title>
			<desc>temp_regopa</desc>
			<v:userDefs>
				<v:ud v:nameU="visVersion" v:val="VT0(15):26"/>
			</v:userDefs>
			<v:textBlock v:margins="rect(4,4,4,4)" v:tabSpace="42.5197"/>
			<v:textRect cx="37.5591" cy="586.574" width="75.12" height="17.4022"/>
			<g id="shadow3-16" v:groupContext="shadow" v:shadowOffsetX="0.345598" v:shadowOffsetY="-1.97279" v:shadowType="1"
					transform="matrix(1,0,0,1,0.345598,1.97279)" class="st2">
				<rect x="0" y="577.873" width="75.1181" height="17.4022" class="st3"/>
			</g>
			<rect x="0" y="577.873" width="75.1181" height="17.4022" class="st4"/>
			<text x="10.04" y="589.57" class="st5" v:langID="2052"><v:paragraph v:horizAlign="1"/><v:tabList/>temp_regopa</text>		</g>
		<g id="shape4-21" v:mID="4" v:groupContext="shape" transform="translate(345.118,-247.657)">
			<title>矩形.4</title>
			<desc>temp_regopb</desc>
			<v:userDefs>
				<v:ud v:nameU="visVersion" v:val="VT0(15):26"/>
			</v:userDefs>
			<v:textBlock v:margins="rect(4,4,4,4)" v:tabSpace="42.5197"/>
			<v:textRect cx="37.5591" cy="586.574" width="75.12" height="17.4022"/>
			<g id="shadow4-22" v:groupContext="shadow" v:shadowOffsetX="0.345598" v:shadowOffsetY="-1.97279" v:shadowType="1"
					transform="matrix(1,0,0,1,0.345598,1.97279)" class="st2">
				<rect x="0" y="577.873" width="75.1181" height="17.4022" class="st3"/>
			</g>
			<rect x="0" y="577.873" width="75.1181" height="17.4022" class="st4"/>
			<text x="9.81" y="589.57" class="st5" v:langID="2052"><v:paragraph v:horizAlign="1"/><v:tabList/>temp_regopb</text>		</g>
		<g id="shape15-27" v:mID="15" v:groupContext="shape" transform="translate(328.465,850.394) rotate(180)">
			<title>梯形</title>
			<v:userDefs>
				<v:ud v:nameU="visVersion" v:prompt="" v:val="VT0(15):26"/>
			</v:userDefs>
			<g id="shadow15-28" v:groupContext="shadow" v:shadowOffsetX="0.345598" v:shadowOffsetY="-1.97279" v:shadowType="1"
					transform="matrix(1,0,0,1,-0.345598,-1.97279)" class="st2">
				<path d="M0 595.28 L80.08 595.28 L61.93 569.41 L18.15 569.41 L0 595.28 Z" class="st3"/>
			</g>
			<path d="M0 595.28 L80.08 595.28 L61.93 569.41 L18.15 569.41 L0 595.28 Z" class="st6"/>
		</g>
		<g id="shape16-32" v:mID="16" v:groupContext="shape" v:layerMember="0" transform="translate(164.935,-460.63)">
			<title>动态连接线</title>
			<path d="M0 595.28 L0 641.53 L48.14 641.53 A2.3622 2.3622 0 0 1 52.86 641.53 L99.75 641.53 L99.75 708.71" class="st7"/>
		</g>
		<g id="shape17-38" v:mID="17" v:groupContext="shape" v:layerMember="0" transform="translate(215.433,-460.63)">
			<title>动态连接线.17</title>
			<path d="M0 595.28 L0 627.72 L94.61 627.72 L94.61 708.71" class="st7"/>
		</g>
		<g id="shape19-43" v:mID="19" v:groupContext="shape" transform="translate(420.236,885.827) rotate(180)">
			<title>梯形.19</title>
			<v:userDefs>
				<v:ud v:nameU="visVersion" v:prompt="" v:val="VT0(15):26"/>
			</v:userDefs>
			<g id="shadow19-44" v:groupContext="shadow" v:shadowOffsetX="0.345598" v:shadowOffsetY="-1.97279" v:shadowType="1"
					transform="matrix(1,0,0,1,-0.345598,-1.97279)" class="st2">
				<path d="M0 595.28 L80.08 595.28 L61.93 569.41 L18.15 569.41 L0 595.28 Z" class="st3"/>
			</g>
			<path d="M0 595.28 L80.08 595.28 L61.93 569.41 L18.15 569.41 L0 595.28 Z" class="st6"/>
		</g>
		<g id="shape22-48" v:mID="22" v:groupContext="shape" v:layerMember="0" transform="translate(295.866,-314.291)">
			<title>动态连接线.22</title>
			<path d="M-6.73 595.28 L-7.34 638.71" class="st7"/>
		</g>
		<g id="shape23-53" v:mID="23" v:groupContext="shape" v:layerMember="0" transform="translate(375.591,-279.045)">
			<title>动态连接线.23</title>
			<path d="M7.09 595.46 L7.09 602.22" class="st7"/>
		</g>
		<g id="shape24-58" v:mID="24" v:groupContext="shape" transform="translate(203.727,-386.684)">
			<title>工作表.24</title>
			<path d="M0 595.28 L23.04 595.28" class="st9"/>
		</g>
		<g id="shape26-61" v:mID="26" v:groupContext="shape" transform="translate(165.827,-386.684)">
			<title>工作表.26</title>
			<path d="M0 595.28 L23.04 595.28" class="st9"/>
		</g>
		<g id="shape27-64" v:mID="27" v:groupContext="shape" transform="translate(702.983,-91.351) rotate(59.7436)">
			<title>工作表.27</title>
			<path d="M0 595.28 L15.96 595.28" class="st9"/>
		</g>
		<g id="shape28-67" v:mID="28" v:groupContext="shape" transform="translate(736.158,474.807) rotate(116.565)">
			<title>工作表.28</title>
			<path d="M0 595.28 L15.41 595.28" class="st9"/>
		</g>
		<g id="shape29-70" v:mID="29" v:groupContext="shape" transform="translate(738.602,512.537) rotate(120.704)">
			<title>工作表.29</title>
			<path d="M0 595.28 L29.39 595.28" class="st9"/>
		</g>
		<g id="shape30-73" v:mID="30" v:groupContext="shape" transform="translate(165.827,-361.417)">
			<title>工作表.30</title>
			<path d="M0 570.01 L17.23 595.28 L45.97 595.22" class="st10"/>
		</g>
		<g id="shape32-76" v:mID="32" v:groupContext="shape" v:layerMember="0" transform="translate(164.672,-460.63)">
			<title>动态连接线.32</title>
			<path d="M0.26 595.28 L0.26 641.53 L13.91 641.53 L13.91 662.18" class="st7"/>
		</g>
		<g id="shape33-81" v:mID="33" v:groupContext="shape" v:layerMember="0" transform="translate(222.52,-460.63)">
			<title>动态连接线.33</title>
			<path d="M-7.09 595.28 L-7.09 627.67 L-7.09 662.18" class="st7"/>
		</g>
		<g id="shape34-86" v:mID="34" v:groupContext="shape" v:layerMember="0" transform="translate(197.664,-361.446)">
			<title>动态连接线.34</title>
			<path d="M0 595.28 L0 629.5 L52.76 629.5" class="st7"/>
		</g>
		<g id="shape35-91" v:mID="35" v:groupContext="shape" v:layerMember="0" transform="translate(197.664,-361.446)">
			<title>动态连接线.35</title>
			<path d="M0 595.28 L0 664.93 L88.79 664.93 A2.3622 2.3622 0 1 1 93.52 664.93 L144.53 664.93" class="st7"/>
		</g>
		<g id="shape36-96" v:mID="36" v:groupContext="shape" transform="translate(160.157,-246.417)">
			<title>矩形.36</title>
			<desc>camp_flag</desc>
			<v:userDefs>
				<v:ud v:nameU="visVersion" v:val="VT0(15):26"/>
			</v:userDefs>
			<v:textBlock v:margins="rect(4,4,4,4)" v:tabSpace="42.5197"/>
			<v:textRect cx="37.5591" cy="586.574" width="75.12" height="17.4022"/>
			<g id="shadow36-97" v:groupContext="shadow" v:shadowOffsetX="0.345598" v:shadowOffsetY="-1.97279" v:shadowType="1"
					transform="matrix(1,0,0,1,0.345598,1.97279)" class="st2">
				<rect x="0" y="577.873" width="75.1181" height="17.4022" class="st3"/>
			</g>
			<rect x="0" y="577.873" width="75.1181" height="17.4022" class="st4"/>
			<text x="16.52" y="589.57" class="st5" v:langID="1033"><v:paragraph v:horizAlign="1"/><v:tabList/>camp_flag</text>		</g>
		<g id="shape37-102" v:mID="37" v:groupContext="shape" v:layerMember="0" transform="translate(190.604,-361.446)">
			<title>动态连接线.37</title>
			<path d="M7.06 595.28 L7.11 595.28 L7.11 683.36" class="st11"/>
		</g>
		<g id="shape38-108" v:mID="38" v:groupContext="shape" transform="translate(265.438,-317.224)">
			<title>工作表.38</title>
			<desc>MUX</desc>
			<v:textBlock v:margins="rect(4,4,4,4)" v:tabSpace="42.5197"/>
			<v:textRect cx="22.9869" cy="585.276" width="45.98" height="20"/>
			<rect x="0" y="575.276" width="45.9738" height="20" class="st13"/>
			<text x="10.89" y="588.88" class="st14" v:langID="2052"><v:paragraph v:horizAlign="1"/><v:tabList/>MUX</text>		</g>
		<g id="shape39-111" v:mID="39" v:groupContext="shape" transform="translate(356.994,-281.791)">
			<title>工作表.39</title>
			<desc>MUX</desc>
			<v:textBlock v:margins="rect(4,4,4,4)" v:tabSpace="42.5197"/>
			<v:textRect cx="23.2029" cy="585.276" width="46.41" height="20"/>
			<rect x="0" y="575.276" width="46.4059" height="20" class="st13"/>
			<text x="11.11" y="588.88" class="st14" v:langID="2052"><v:paragraph v:horizAlign="1"/><v:tabList/>MUX</text>		</g>
		<g id="shape40-114" v:mID="40" v:groupContext="shape" v:layerMember="0" transform="translate(238.636,-469.331)">
			<title>动态连接线.40</title>
			<path d="M0 595.28 L117.82 595.28 L117.82 752.84" class="st7"/>
		</g>
		<g id="shape41-119" v:mID="41" v:groupContext="shape" v:layerMember="0" transform="translate(164.935,-478.032)">
			<title>动态连接线.41</title>
			<path d="M0 595.28 L0 584.56 L236.88 584.56 L236.88 761.54" class="st7"/>
		</g>
	</g>
</svg>
