<?xml version="1.0" encoding="UTF-8" standalone="no"?>
<!DOCTYPE svg PUBLIC "-//W3C//DTD SVG 1.1//EN" "http://www.w3.org/Graphics/SVG/1.1/DTD/svg11.dtd">
<!-- 由 Microsoft Visio, SVG Export 生成 length.svg Page-1 -->
<svg xmlns="http://www.w3.org/2000/svg" xmlns:xlink="http://www.w3.org/1999/xlink" xmlns:ev="http://www.w3.org/2001/xml-events"
		xmlns:v="http://schemas.microsoft.com/visio/2003/SVGExtensions/" width="11.6929in" height="16.0354in"
		viewBox="0 0 841.89 1154.55" xml:space="preserve" color-interpolation-filters="sRGB" class="st14">
	<v:documentProperties v:langID="2052" v:metric="true" v:viewMarkup="false">
		<v:userDefs>
			<v:ud v:nameU="msvSubprocessMaster" v:prompt="" v:val="VT4(Rectangle)"/>
			<v:ud v:nameU="msvNoAutoConnect" v:val="VT0(1):26"/>
		</v:userDefs>
	</v:documentProperties>

	<style type="text/css">
	<![CDATA[
		.st1 {fill:#ffffff;stroke:#000000;stroke-dasharray:5.25,3.75;stroke-width:0.75}
		.st2 {fill:#ffffff;stroke:#000000;stroke-width:0.75}
		.st3 {fill:none;stroke:#ffffff;stroke-width:0.25}
		.st4 {fill:#000000;font-family:SimSun;font-size:1.00001em}
		.st5 {marker-end:url(#mrkr4-13);stroke:#000000;stroke-linecap:round;stroke-linejoin:round;stroke-width:1}
		.st6 {fill:#000000;fill-opacity:1;stroke:#000000;stroke-opacity:1;stroke-width:0.28409090909091}
		.st7 {fill:none;stroke:none;stroke-width:0.25}
		.st8 {fill:#000000;font-family:Calibri;font-size:1.00001em}
		.st9 {fill:none;stroke:#000000;stroke-width:0.25}
		.st10 {stroke:#000000;stroke-width:0.75}
		.st11 {stroke:#000000;stroke-linecap:round;stroke-linejoin:round;stroke-width:1}
		.st12 {marker-end:url(#mrkr2-324);stroke:#000000;stroke-linecap:round;stroke-linejoin:round;stroke-width:1}
		.st13 {stroke:#000000;stroke-dasharray:7,5,0,5,0,5;stroke-linecap:round;stroke-linejoin:round;stroke-width:1}
		.st14 {fill:none;fill-rule:evenodd;font-size:12px;overflow:visible;stroke-linecap:square;stroke-miterlimit:3}
	]]>
	</style>

	<defs id="Markers">
		<g id="lend4">
			<path d="M 2 1 L 0 0 L 2 -1 L 2 1 " style="stroke:none"/>
		</g>
		<marker id="mrkr4-13" class="st6" v:arrowType="4" v:arrowSize="2" v:setback="7.04" refX="-7.04" orient="auto"
				markerUnits="strokeWidth" overflow="visible">
			<use xlink:href="#lend4" transform="scale(-3.52,-3.52) "/>
		</marker>
		<g id="lend2">
			<path d="M 1 1 L 0 0 L 1 -1 L 1 1 " style="stroke:none"/>
		</g>
		<marker id="mrkr2-324" class="st6" v:arrowType="2" v:arrowSize="2" v:setback="3.52" refX="-3.52" orient="auto"
				markerUnits="strokeWidth" overflow="visible">
			<use xlink:href="#lend2" transform="scale(-3.52,-3.52) "/>
		</marker>
	</defs>
	<g v:mID="0" v:index="1" v:groupContext="foregroundPage">
		<v:userDefs>
			<v:ud v:nameU="msvThemeOrder" v:val="VT0(0):26"/>
		</v:userDefs>
		<title>页-1</title>
		<v:pageProperties v:drawingScale="0.0393701" v:pageScale="0.0393701" v:drawingUnits="24" v:shadowOffsetX="8.50394"
				v:shadowOffsetY="-8.50394"/>
		<v:layer v:name="连接线" v:index="0"/>
		<g id="shape124-1" v:mID="124" v:groupContext="shape" transform="translate(62.3622,-428.882)">
			<title>工作表.124</title>
			<path d="M0 763.37 L436.54 763.37 L436.54 1154.55 L0 1154.55 L0 763.37 Z" class="st1"/>
		</g>
		<g id="shape1-3" v:mID="1" v:groupContext="shape" transform="translate(162.992,1544.31) rotate(180)">
			<title>梯形</title>
			<v:userDefs>
				<v:ud v:nameU="visVersion" v:prompt="" v:val="VT0(15):26"/>
			</v:userDefs>
			<path d="M0 1154.55 L42.52 1154.55 L31.89 1133.29 L10.63 1133.29 L0 1154.55 Z" class="st2"/>
		</g>
		<g id="shape5-5" v:mID="5" v:groupContext="shape" transform="translate(318.898,-744.157)">
			<title>工作表.5</title>
			<desc>………</desc>
			<v:textBlock v:margins="rect(4,4,4,4)" v:tabSpace="42.5197"/>
			<v:textRect cx="31.7795" cy="1144.55" width="63.56" height="20"/>
			<rect x="0" y="1134.55" width="63.5591" height="20" class="st3"/>
			<text x="13.78" y="1148.55" class="st4" v:langID="2052"><v:paragraph v:horizAlign="1"/><v:tabList/>………</text>		</g>
		<g id="shape6-8" v:mID="6" v:groupContext="shape" transform="translate(1285.1,399.281) rotate(91.5275)">
			<title>工作表.6</title>
			<path d="M0 1154.55 L14.23 1154.55" class="st5"/>
		</g>
		<g id="shape7-14" v:mID="7" v:groupContext="shape" transform="translate(1307.76,399.281) rotate(91.5275)">
			<title>工作表.7</title>
			<path d="M0 1154.55 L14.23 1154.55" class="st5"/>
		</g>
		<g id="shape19-19" v:mID="19" v:groupContext="shape" transform="translate(106.299,-754.157)">
			<title>工作表.19</title>
			<path d="M0 1154.55 L12.45 1154.55" class="st5"/>
		</g>
		<g id="shape24-24" v:mID="24" v:groupContext="shape" transform="translate(240.945,1544.31) rotate(180)">
			<title>梯形.24</title>
			<v:userDefs>
				<v:ud v:nameU="visVersion" v:prompt="" v:val="VT0(15):26"/>
			</v:userDefs>
			<path d="M0 1154.55 L42.52 1154.55 L31.89 1133.29 L10.63 1133.29 L0 1154.55 Z" class="st2"/>
		</g>
		<g id="shape25-26" v:mID="25" v:groupContext="shape" transform="translate(1363.05,399.281) rotate(91.5275)">
			<title>工作表.25</title>
			<path d="M0 1154.55 L14.23 1154.55" class="st5"/>
		</g>
		<g id="shape26-31" v:mID="26" v:groupContext="shape" transform="translate(1385.71,399.281) rotate(91.5275)">
			<title>工作表.26</title>
			<path d="M0 1154.55 L14.23 1154.55" class="st5"/>
		</g>
		<g id="shape27-36" v:mID="27" v:groupContext="shape" transform="translate(184.252,-754.157)">
			<title>工作表.27</title>
			<path d="M0 1154.55 L12.45 1154.55" class="st5"/>
		</g>
		<g id="shape28-41" v:mID="28" v:groupContext="shape" transform="translate(474.803,1544.31) rotate(180)">
			<title>梯形.28</title>
			<v:userDefs>
				<v:ud v:nameU="visVersion" v:prompt="" v:val="VT0(15):26"/>
			</v:userDefs>
			<path d="M0 1154.55 L42.52 1154.55 L31.89 1133.29 L10.63 1133.29 L0 1154.55 Z" class="st2"/>
		</g>
		<g id="shape29-43" v:mID="29" v:groupContext="shape" transform="translate(1596.91,399.281) rotate(91.5275)">
			<title>工作表.29</title>
			<path d="M0 1154.55 L14.23 1154.55" class="st5"/>
		</g>
		<g id="shape30-48" v:mID="30" v:groupContext="shape" transform="translate(1619.57,399.281) rotate(91.5275)">
			<title>工作表.30</title>
			<path d="M0 1154.55 L14.23 1154.55" class="st5"/>
		</g>
		<g id="shape31-53" v:mID="31" v:groupContext="shape" transform="translate(418.11,-754.157)">
			<title>工作表.31</title>
			<path d="M0 1154.55 L12.45 1154.55" class="st5"/>
		</g>
		<g id="shape32-58" v:mID="32" v:groupContext="shape" transform="translate(66.9606,-744.787)">
			<title>工作表.32</title>
			<desc>op[1]</desc>
			<v:textBlock v:margins="rect(4,4,4,4)" v:tabSpace="42.5197"/>
			<v:textRect cx="21.2598" cy="1144.55" width="42.52" height="20"/>
			<rect x="0" y="1134.55" width="42.5197" height="20" class="st7"/>
			<text x="8.22" y="1148.15" class="st8" v:langID="2052"><v:paragraph v:horizAlign="1"/><v:tabList/>op[1]</text>		</g>
		<g id="shape33-61" v:mID="33" v:groupContext="shape" transform="translate(152,-744.157)">
			<title>工作表.33</title>
			<desc>op[3]</desc>
			<v:textBlock v:margins="rect(4,4,4,4)" v:tabSpace="42.5197"/>
			<v:textRect cx="21.2598" cy="1144.55" width="42.52" height="20"/>
			<rect x="0" y="1134.55" width="42.5197" height="20" class="st9"/>
			<text x="8.22" y="1148.15" class="st8" v:langID="2052"><v:paragraph v:horizAlign="1"/><v:tabList/>op[3]</text>		</g>
		<g id="shape34-64" v:mID="34" v:groupContext="shape" transform="translate(328.727,1544.31) rotate(180)">
			<title>梯形.34</title>
			<v:userDefs>
				<v:ud v:nameU="visVersion" v:prompt="" v:val="VT0(15):26"/>
			</v:userDefs>
			<path d="M0 1154.55 L42.52 1154.55 L31.89 1133.29 L10.63 1133.29 L0 1154.55 Z" class="st2"/>
		</g>
		<g id="shape35-66" v:mID="35" v:groupContext="shape" transform="translate(1450.84,399.281) rotate(91.5275)">
			<title>工作表.35</title>
			<path d="M0 1154.55 L14.23 1154.55" class="st5"/>
		</g>
		<g id="shape36-71" v:mID="36" v:groupContext="shape" transform="translate(1473.5,399.281) rotate(91.5275)">
			<title>工作表.36</title>
			<path d="M0 1154.55 L14.23 1154.55" class="st5"/>
		</g>
		<g id="shape37-76" v:mID="37" v:groupContext="shape" transform="translate(272.035,-754.157)">
			<title>工作表.37</title>
			<path d="M0 1154.55 L12.45 1154.55" class="st5"/>
		</g>
		<g id="shape38-81" v:mID="38" v:groupContext="shape" transform="translate(233.858,-744.157)">
			<title>工作表.38</title>
			<desc>op[5]</desc>
			<v:textBlock v:margins="rect(4,4,4,4)" v:tabSpace="42.5197"/>
			<v:textRect cx="21.2598" cy="1144.55" width="42.52" height="20"/>
			<rect x="0" y="1134.55" width="42.5197" height="20" class="st7"/>
			<text x="8.22" y="1148.15" class="st8" v:langID="2052"><v:paragraph v:horizAlign="1"/><v:tabList/>op[5]</text>		</g>
		<g id="shape39-84" v:mID="39" v:groupContext="shape" transform="translate(373.99,-743.528)">
			<title>工作表.39</title>
			<desc>op[31]</desc>
			<v:textBlock v:margins="rect(4,4,4,4)" v:tabSpace="42.5197"/>
			<v:textRect cx="21.2598" cy="1144.55" width="42.52" height="20"/>
			<rect x="0" y="1134.55" width="42.5197" height="20" class="st7"/>
			<text x="5.18" y="1148.15" class="st8" v:langID="2052"><v:paragraph v:horizAlign="1"/><v:tabList/>op[31]</text>		</g>
		<g id="shape40-87" v:mID="40" v:groupContext="shape" transform="translate(205.512,1629.35) rotate(180)">
			<title>梯形.40</title>
			<v:userDefs>
				<v:ud v:nameU="visVersion" v:prompt="" v:val="VT0(15):26"/>
			</v:userDefs>
			<path d="M0 1154.55 L42.52 1154.55 L31.89 1133.29 L10.63 1133.29 L0 1154.55 Z" class="st2"/>
		</g>
		<g id="shape41-89" v:mID="41" v:groupContext="shape" transform="translate(1327.62,484.32) rotate(91.5275)">
			<title>工作表.41</title>
			<path d="M0 1154.55 L14.23 1154.55" class="st5"/>
		</g>
		<g id="shape42-94" v:mID="42" v:groupContext="shape" transform="translate(1350.28,484.32) rotate(91.5275)">
			<title>工作表.42</title>
			<path d="M0 1154.55 L14.23 1154.55" class="st5"/>
		</g>
		<g id="shape43-99" v:mID="43" v:groupContext="shape" transform="translate(148.819,-669.118)">
			<title>工作表.43</title>
			<path d="M0 1154.55 L12.45 1154.55" class="st5"/>
		</g>
		<g id="shape48-104" v:mID="48" v:groupContext="shape" transform="translate(455.029,1629.35) rotate(180)">
			<title>梯形.48</title>
			<v:userDefs>
				<v:ud v:nameU="visVersion" v:prompt="" v:val="VT0(15):26"/>
			</v:userDefs>
			<path d="M0 1154.55 L42.52 1154.55 L31.89 1133.29 L10.63 1133.29 L0 1154.55 Z" class="st2"/>
		</g>
		<g id="shape49-106" v:mID="49" v:groupContext="shape" transform="translate(1577.14,484.32) rotate(91.5275)">
			<title>工作表.49</title>
			<path d="M0 1154.55 L14.23 1154.55" class="st5"/>
		</g>
		<g id="shape50-111" v:mID="50" v:groupContext="shape" transform="translate(1599.8,484.32) rotate(91.5275)">
			<title>工作表.50</title>
			<path d="M0 1154.55 L14.23 1154.55" class="st5"/>
		</g>
		<g id="shape51-116" v:mID="51" v:groupContext="shape" transform="translate(398.336,-669.118)">
			<title>工作表.51</title>
			<path d="M0 1154.55 L12.45 1154.55" class="st5"/>
		</g>
		<g id="shape52-121" v:mID="52" v:groupContext="shape" transform="translate(102.756,-659.748)">
			<title>工作表.52</title>
			<desc>op[3:2]</desc>
			<v:textBlock v:margins="rect(4,4,4,4)" v:tabSpace="42.5197"/>
			<v:textRect cx="24.8031" cy="1144.55" width="49.61" height="20"/>
			<rect x="0" y="1134.55" width="49.6063" height="20" class="st7"/>
			<text x="7.12" y="1148.15" class="st8" v:langID="2052"><v:paragraph v:horizAlign="1"/><v:tabList/>op[3:2]</text>		</g>
		<g id="shape54-124" v:mID="54" v:groupContext="shape" transform="translate(338.892,-658.488)">
			<title>工作表.54</title>
			<desc>op[31:30]</desc>
			<v:textBlock v:margins="rect(4,4,4,4)" v:tabSpace="42.5197"/>
			<v:textRect cx="31.7795" cy="1144.55" width="63.56" height="20"/>
			<rect x="0" y="1134.55" width="63.5591" height="20" class="st9"/>
			<text x="8.01" y="1148.15" class="st8" v:langID="2052"><v:paragraph v:horizAlign="1"/><v:tabList/>op[31:30]</text>		</g>
		<g id="shape55-127" v:mID="55" v:groupContext="shape" transform="translate(275.688,-658.488)">
			<title>工作表.55</title>
			<desc>………</desc>
			<v:textBlock v:margins="rect(4,4,4,4)" v:tabSpace="42.5197"/>
			<v:textRect cx="31.7795" cy="1144.55" width="63.56" height="20"/>
			<rect x="0" y="1134.55" width="63.5591" height="20" class="st3"/>
			<text x="13.78" y="1148.55" class="st4" v:langID="2052"><v:paragraph v:horizAlign="1"/><v:tabList/>………</text>		</g>
		<g id="shape57-130" v:mID="57" v:groupContext="shape" transform="translate(141.732,-701.008)">
			<title>工作表.57</title>
			<path d="M0 1112.03 L0 1140.38 L31.55 1140.38 L31.75 1154.55" class="st10"/>
		</g>
		<g id="shape58-133" v:mID="58" v:groupContext="shape" transform="translate(198.425,-715.181)">
			<title>工作表.58</title>
			<path d="M21.26 1126.2 L21.26 1154.55 L0 1154.55" class="st10"/>
		</g>
		<g id="shape60-136" v:mID="60" v:groupContext="shape" transform="translate(-958.412,453.558) rotate(-90)">
			<title>工作表.60</title>
			<path d="M0 1154.55 L14.19 1154.55" class="st11"/>
		</g>
		<g id="shape61-139" v:mID="61" v:groupContext="shape" transform="translate(198.425,1593.92) rotate(180)">
			<title>工作表.61</title>
			<path d="M0 1154.55 L2.29 1154.55" class="st11"/>
		</g>
		<g id="shape62-142" v:mID="62" v:groupContext="shape" transform="translate(446.457,-715.181)">
			<title>工作表.62</title>
			<path d="M7.09 1126.2 L7.09 1154.55 L0 1154.55" class="st10"/>
		</g>
		<g id="shape64-145" v:mID="64" v:groupContext="shape" transform="translate(-708.904,453.896) rotate(-90)">
			<title>工作表.64</title>
			<path d="M0 1154.55 L14.53 1154.55" class="st11"/>
		</g>
		<g id="shape65-148" v:mID="65" v:groupContext="shape" transform="translate(244.488,1710.57) rotate(180)">
			<title>梯形.65</title>
			<v:userDefs>
				<v:ud v:nameU="visVersion" v:prompt="" v:val="VT0(15):26"/>
			</v:userDefs>
			<path d="M0 1154.55 L42.52 1154.55 L31.89 1133.29 L10.63 1133.29 L0 1154.55 Z" class="st2"/>
		</g>
		<g id="shape66-150" v:mID="66" v:groupContext="shape" transform="translate(1366.6,565.533) rotate(91.5275)">
			<title>工作表.66</title>
			<path d="M0 1154.55 L14.23 1154.55" class="st5"/>
		</g>
		<g id="shape67-155" v:mID="67" v:groupContext="shape" transform="translate(1389.26,565.533) rotate(91.5275)">
			<title>工作表.67</title>
			<path d="M0 1154.55 L14.23 1154.55" class="st5"/>
		</g>
		<g id="shape68-160" v:mID="68" v:groupContext="shape" transform="translate(187.795,-587.906)">
			<title>工作表.68</title>
			<path d="M0 1154.55 L12.45 1154.55" class="st5"/>
		</g>
		<g id="shape69-165" v:mID="69" v:groupContext="shape" transform="translate(141.732,-578.535)">
			<title>工作表.69</title>
			<desc>op[7:4]</desc>
			<v:textBlock v:margins="rect(4,4,4,4)" v:tabSpace="42.5197"/>
			<v:textRect cx="24.8031" cy="1144.55" width="49.61" height="20"/>
			<rect x="0" y="1134.55" width="49.6063" height="20" class="st7"/>
			<text x="7.12" y="1148.15" class="st8" v:langID="2052"><v:paragraph v:horizAlign="1"/><v:tabList/>op[7:4]</text>		</g>
		<g id="shape70-168" v:mID="70" v:groupContext="shape" transform="translate(433.617,1710.57) rotate(180)">
			<title>梯形.70</title>
			<v:userDefs>
				<v:ud v:nameU="visVersion" v:prompt="" v:val="VT0(15):26"/>
			</v:userDefs>
			<path d="M0 1154.55 L42.52 1154.55 L31.89 1133.29 L10.63 1133.29 L0 1154.55 Z" class="st2"/>
		</g>
		<g id="shape71-170" v:mID="71" v:groupContext="shape" transform="translate(1555.73,565.533) rotate(91.5275)">
			<title>工作表.71</title>
			<path d="M0 1154.55 L14.23 1154.55" class="st5"/>
		</g>
		<g id="shape72-175" v:mID="72" v:groupContext="shape" transform="translate(1578.39,565.533) rotate(91.5275)">
			<title>工作表.72</title>
			<path d="M0 1154.55 L14.23 1154.55" class="st5"/>
		</g>
		<g id="shape73-180" v:mID="73" v:groupContext="shape" transform="translate(376.925,-587.906)">
			<title>工作表.73</title>
			<path d="M0 1154.55 L12.45 1154.55" class="st5"/>
		</g>
		<g id="shape74-185" v:mID="74" v:groupContext="shape" transform="translate(317.48,-577.276)">
			<title>工作表.74</title>
			<desc>op[31:28]</desc>
			<v:textBlock v:margins="rect(4,4,4,4)" v:tabSpace="42.5197"/>
			<v:textRect cx="31.7795" cy="1144.55" width="63.56" height="20"/>
			<rect x="0" y="1134.55" width="63.5591" height="20" class="st7"/>
			<text x="8.01" y="1148.15" class="st8" v:langID="2052"><v:paragraph v:horizAlign="1"/><v:tabList/>op[31:28]</text>		</g>
		<g id="shape75-188" v:mID="75" v:groupContext="shape" transform="translate(265.26,-578.535)">
			<title>工作表.75</title>
			<desc>………</desc>
			<v:textBlock v:margins="rect(4,4,4,4)" v:tabSpace="42.5197"/>
			<v:textRect cx="31.7795" cy="1144.55" width="63.56" height="20"/>
			<rect x="0" y="1134.55" width="63.5591" height="20" class="st7"/>
			<text x="13.78" y="1148.55" class="st4" v:langID="2052"><v:paragraph v:horizAlign="1"/><v:tabList/>………</text>		</g>
		<g id="shape76-191" v:mID="76" v:groupContext="shape" transform="translate(184.252,-619.795)">
			<title>工作表.76</title>
			<path d="M0 1115.86 L0 1137.12 L28.35 1137.12 L28.2 1154.55" class="st10"/>
		</g>
		<g id="shape77-194" v:mID="77" v:groupContext="shape" transform="translate(425.197,-630.142)">
			<title>工作表.77</title>
			<path d="M11.34 1126.2 L11.34 1154.55 L0 1154.55" class="st10"/>
		</g>
		<g id="shape79-197" v:mID="79" v:groupContext="shape" transform="translate(-730.306,534.756) rotate(-90)">
			<title>工作表.79</title>
			<path d="M0 1154.55 L10.35 1154.55" class="st11"/>
		</g>
		<g id="shape80-200" v:mID="80" v:groupContext="shape" transform="translate(276.378,1778.17) rotate(180)">
			<title>梯形.80</title>
			<v:userDefs>
				<v:ud v:nameU="visVersion" v:prompt="" v:val="VT0(15):26"/>
			</v:userDefs>
			<path d="M0 1154.55 L42.52 1154.55 L31.89 1133.29 L10.63 1133.29 L0 1154.55 Z" class="st2"/>
		</g>
		<g id="shape81-202" v:mID="81" v:groupContext="shape" transform="translate(1398.49,633.139) rotate(91.5275)">
			<title>工作表.81</title>
			<path d="M0 1154.55 L14.23 1154.55" class="st5"/>
		</g>
		<g id="shape82-207" v:mID="82" v:groupContext="shape" transform="translate(1421.15,633.139) rotate(91.5275)">
			<title>工作表.82</title>
			<path d="M0 1154.55 L14.23 1154.55" class="st5"/>
		</g>
		<g id="shape83-212" v:mID="83" v:groupContext="shape" transform="translate(219.685,-520.299)">
			<title>工作表.83</title>
			<path d="M0 1154.55 L12.45 1154.55" class="st5"/>
		</g>
		<g id="shape84-217" v:mID="84" v:groupContext="shape" transform="translate(173.622,-510.929)">
			<title>工作表.84</title>
			<desc>op[15:8]</desc>
			<v:textBlock v:margins="rect(4,4,4,4)" v:tabSpace="42.5197"/>
			<v:textRect cx="24.8031" cy="1144.55" width="49.61" height="20"/>
			<rect x="0" y="1134.55" width="49.6063" height="20" class="st7"/>
			<text x="4.08" y="1148.15" class="st8" v:langID="2052"><v:paragraph v:horizAlign="1"/><v:tabList/>op[15:8]</text>		</g>
		<g id="shape85-220" v:mID="85" v:groupContext="shape" transform="translate(396.85,1778.17) rotate(180)">
			<title>梯形.85</title>
			<v:userDefs>
				<v:ud v:nameU="visVersion" v:prompt="" v:val="VT0(15):26"/>
			</v:userDefs>
			<path d="M0 1154.55 L42.52 1154.55 L31.89 1133.29 L10.63 1133.29 L0 1154.55 Z" class="st2"/>
		</g>
		<g id="shape86-222" v:mID="86" v:groupContext="shape" transform="translate(1518.96,633.139) rotate(91.5275)">
			<title>工作表.86</title>
			<path d="M0 1154.55 L14.23 1154.55" class="st5"/>
		</g>
		<g id="shape87-227" v:mID="87" v:groupContext="shape" transform="translate(1541.62,633.139) rotate(91.5275)">
			<title>工作表.87</title>
			<path d="M0 1154.55 L14.23 1154.55" class="st5"/>
		</g>
		<g id="shape88-232" v:mID="88" v:groupContext="shape" transform="translate(340.157,-520.299)">
			<title>工作表.88</title>
			<path d="M0 1154.55 L12.45 1154.55" class="st5"/>
		</g>
		<g id="shape89-237" v:mID="89" v:groupContext="shape" transform="translate(279.209,-510.929)">
			<title>工作表.89</title>
			<desc>op[31:24]</desc>
			<v:textBlock v:margins="rect(4,4,4,4)" v:tabSpace="42.5197"/>
			<v:textRect cx="31.7795" cy="1144.55" width="63.56" height="20"/>
			<rect x="0" y="1134.55" width="63.5591" height="20" class="st7"/>
			<text x="8.01" y="1148.15" class="st8" v:langID="2052"><v:paragraph v:horizAlign="1"/><v:tabList/>op[31:24]</text>		</g>
		<g id="shape92-240" v:mID="92" v:groupContext="shape" transform="translate(223.937,-563.811)">
			<title>工作表.92</title>
			<path d="M0 1141.09 L0 1154.55 L19.84 1154.55" class="st10"/>
		</g>
		<g id="shape93-243" v:mID="93" v:groupContext="shape" transform="translate(-909.809,572.137) rotate(-88.4725)">
			<title>工作表.93</title>
			<path d="M0 1154.55 L12.21 1154.55" class="st11"/>
		</g>
		<g id="shape94-246" v:mID="94" v:groupContext="shape" transform="translate(-740.598,553.937) rotate(-87.9481)">
			<title>工作表.94</title>
			<path d="M0 1154.55 L18.01 1154.55" class="st11"/>
		</g>
		<g id="shape95-249" v:mID="95" v:groupContext="shape" transform="translate(283.465,1629.35) rotate(180)">
			<title>梯形.95</title>
			<v:userDefs>
				<v:ud v:nameU="visVersion" v:prompt="" v:val="VT0(15):26"/>
			</v:userDefs>
			<path d="M0 1154.55 L42.52 1154.55 L31.89 1133.29 L10.63 1133.29 L0 1154.55 Z" class="st2"/>
		</g>
		<g id="shape96-251" v:mID="96" v:groupContext="shape" transform="translate(1405.57,484.32) rotate(91.5275)">
			<title>工作表.96</title>
			<path d="M0 1154.55 L14.23 1154.55" class="st5"/>
		</g>
		<g id="shape97-256" v:mID="97" v:groupContext="shape" transform="translate(1428.23,484.32) rotate(91.5275)">
			<title>工作表.97</title>
			<path d="M0 1154.55 L14.23 1154.55" class="st5"/>
		</g>
		<g id="shape98-261" v:mID="98" v:groupContext="shape" transform="translate(226.772,-669.118)">
			<title>工作表.98</title>
			<path d="M0 1154.55 L12.45 1154.55" class="st5"/>
		</g>
		<g id="shape99-266" v:mID="99" v:groupContext="shape" transform="translate(233.858,-637.228)">
			<title>工作表.99</title>
			<path d="M28.35 1133.29 L28.35 1154.55 L0 1154.55" class="st10"/>
		</g>
		<g id="shape100-269" v:mID="100" v:groupContext="shape" transform="translate(-918.433,486.654) rotate(-87.6122)">
			<title>工作表.100</title>
			<path d="M0 1154.55 L17.45 1154.55" class="st11"/>
		</g>
		<g id="shape101-272" v:mID="101" v:groupContext="shape" transform="translate(333.071,1841.95) rotate(180)">
			<title>梯形.101</title>
			<v:userDefs>
				<v:ud v:nameU="visVersion" v:prompt="" v:val="VT0(15):26"/>
			</v:userDefs>
			<path d="M0 1154.55 L42.52 1154.55 L31.89 1133.29 L10.63 1133.29 L0 1154.55 Z" class="st2"/>
		</g>
		<g id="shape102-274" v:mID="102" v:groupContext="shape" transform="translate(1455.18,696.919) rotate(91.5275)">
			<title>工作表.102</title>
			<path d="M0 1154.55 L14.23 1154.55" class="st5"/>
		</g>
		<g id="shape103-279" v:mID="103" v:groupContext="shape" transform="translate(1477.84,696.919) rotate(91.5275)">
			<title>工作表.103</title>
			<path d="M0 1154.55 L14.23 1154.55" class="st5"/>
		</g>
		<g id="shape104-284" v:mID="104" v:groupContext="shape" transform="translate(276.378,-456.52)">
			<title>工作表.104</title>
			<path d="M0 1154.55 L12.45 1154.55" class="st5"/>
		</g>
		<g id="shape105-289" v:mID="105" v:groupContext="shape" transform="translate(-767.073,602.362) rotate(-90)">
			<title>工作表.105</title>
			<path d="M0 1154.55 L7.09 1154.55" class="st11"/>
		</g>
		<g id="shape106-292" v:mID="106" v:groupContext="shape" transform="translate(413.213,1749.83) rotate(180)">
			<title>工作表.106</title>
			<path d="M0 1154.55 L25.74 1154.55" class="st11"/>
		</g>
		<g id="shape107-295" v:mID="107" v:groupContext="shape" transform="translate(323.15,-487.841)">
			<title>工作表.107</title>
			<path d="M52.44 1133.05 L52.44 1154.55 L0 1154.55" class="st10"/>
		</g>
		<g id="shape108-298" v:mID="108" v:groupContext="shape" transform="translate(255.118,-487.841)">
			<title>工作表.108</title>
			<path d="M0 1132.72 L0 1153.98 L45.91 1154.55" class="st10"/>
		</g>
		<g id="shape109-301" v:mID="109" v:groupContext="shape" transform="translate(212.819,-445.89)">
			<title>工作表.109</title>
			<desc>op[31:16]</desc>
			<v:textBlock v:margins="rect(4,4,4,4)" v:tabSpace="42.5197"/>
			<v:textRect cx="31.7795" cy="1144.55" width="63.56" height="20"/>
			<rect x="0" y="1134.55" width="63.5591" height="20" class="st7"/>
			<text x="8.01" y="1148.15" class="st8" v:langID="2052"><v:paragraph v:horizAlign="1"/><v:tabList/>op[31:16]</text>		</g>
		<g id="shape110-304" v:mID="110" v:groupContext="shape" transform="translate(4.47244,-743.37)">
			<title>工作表.110</title>
			<desc>stage1</desc>
			<v:textBlock v:margins="rect(4,4,4,4)" v:tabSpace="42.5197"/>
			<v:textRect cx="31.7795" cy="1144.55" width="63.56" height="20"/>
			<rect x="0" y="1134.55" width="63.5591" height="20" class="st7"/>
			<text x="15.7" y="1148.15" class="st8" v:langID="2052"><v:paragraph v:horizAlign="1"/><v:tabList/>stage1</text>		</g>
		<g id="shape111-307" v:mID="111" v:groupContext="shape" transform="translate(5.66929,-658.331)">
			<title>工作表.111</title>
			<desc>stage2</desc>
			<v:textBlock v:margins="rect(4,4,4,4)" v:tabSpace="42.5197"/>
			<v:textRect cx="31.7795" cy="1144.55" width="63.56" height="20"/>
			<rect x="0" y="1134.55" width="63.5591" height="20" class="st7"/>
			<text x="15.7" y="1148.15" class="st8" v:langID="2052"><v:paragraph v:horizAlign="1"/><v:tabList/>stage2</text>		</g>
		<g id="shape112-310" v:mID="112" v:groupContext="shape" transform="translate(5.66929,-573.291)">
			<title>工作表.112</title>
			<desc>stage3</desc>
			<v:textBlock v:margins="rect(4,4,4,4)" v:tabSpace="42.5197"/>
			<v:textRect cx="31.7795" cy="1144.55" width="63.56" height="20"/>
			<rect x="0" y="1134.55" width="63.5591" height="20" class="st7"/>
			<text x="15.7" y="1148.15" class="st8" v:langID="2052"><v:paragraph v:horizAlign="1"/><v:tabList/>stage3</text>		</g>
		<g id="shape113-313" v:mID="113" v:groupContext="shape" transform="translate(2.23622,-508.252)">
			<title>工作表.113</title>
			<desc>stage4</desc>
			<v:textBlock v:margins="rect(4,4,4,4)" v:tabSpace="42.5197"/>
			<v:textRect cx="31.7795" cy="1144.55" width="63.56" height="20"/>
			<rect x="0" y="1134.55" width="63.5591" height="20" class="st7"/>
			<text x="15.7" y="1148.15" class="st8" v:langID="2052"><v:paragraph v:horizAlign="1"/><v:tabList/>stage4</text>		</g>
		<g id="shape114-316" v:mID="114" v:groupContext="shape" transform="translate(2.23622,-443.213)">
			<title>工作表.114</title>
			<desc>stage5</desc>
			<v:textBlock v:margins="rect(4,4,4,4)" v:tabSpace="42.5197"/>
			<v:textRect cx="31.7795" cy="1144.55" width="63.56" height="20"/>
			<rect x="0" y="1134.55" width="63.5591" height="20" class="st7"/>
			<text x="15.7" y="1148.15" class="st8" v:langID="2052"><v:paragraph v:horizAlign="1"/><v:tabList/>stage5</text>		</g>
		<g id="shape115-319" v:mID="115" v:groupContext="shape" transform="translate(1466.36,708.661) rotate(90)">
			<title>工作表.115</title>
			<path d="M0 1154.55 L30.5 1154.55" class="st12"/>
		</g>
		<g id="shape116-325" v:mID="116" v:groupContext="shape" transform="translate(143.15,-786.047)">
			<title>工作表.116</title>
			<desc>2</desc>
			<v:textBlock v:margins="rect(4,4,4,4)" v:tabSpace="42.5197"/>
			<v:textRect cx="10.6299" cy="1144.55" width="21.26" height="20"/>
			<rect x="0" y="1134.55" width="21.2598" height="20" class="st7"/>
			<text x="7.59" y="1148.15" class="st8" v:langID="2052"><v:paragraph v:horizAlign="1"/><v:tabList/>2</text>		</g>
		<g id="shape117-328" v:mID="117" v:groupContext="shape" transform="translate(102.047,-784.787)">
			<title>工作表.117</title>
			<desc>op[0]</desc>
			<v:textBlock v:margins="rect(4,4,4,4)" v:tabSpace="42.5197"/>
			<v:textRect cx="21.2598" cy="1144.55" width="42.52" height="20"/>
			<rect x="0" y="1134.55" width="42.5197" height="20" class="st7"/>
			<text x="8.22" y="1148.15" class="st8" v:langID="2052"><v:paragraph v:horizAlign="1"/><v:tabList/>op[0]</text>		</g>
		<g id="shape118-331" v:mID="118" v:groupContext="shape" transform="translate(198.425,-785.417)">
			<title>工作表.118</title>
			<desc>3</desc>
			<v:textBlock v:margins="rect(4,4,4,4)" v:tabSpace="42.5197"/>
			<v:textRect cx="10.6299" cy="1144.55" width="21.26" height="20"/>
			<rect x="0" y="1134.55" width="21.2598" height="20" class="st7"/>
			<text x="7.59" y="1148.15" class="st8" v:langID="2052"><v:paragraph v:horizAlign="1"/><v:tabList/>3</text>		</g>
		<g id="shape119-334" v:mID="119" v:groupContext="shape" transform="translate(219.685,-785.417)">
			<title>工作表.119</title>
			<desc>4</desc>
			<v:textBlock v:margins="rect(4,4,4,4)" v:tabSpace="42.5197"/>
			<v:textRect cx="10.6299" cy="1144.55" width="21.26" height="20"/>
			<rect x="0" y="1134.55" width="21.2598" height="20" class="st7"/>
			<text x="7.59" y="1148.15" class="st8" v:langID="2052"><v:paragraph v:horizAlign="1"/><v:tabList/>4</text>		</g>
		<g id="shape120-337" v:mID="120" v:groupContext="shape" transform="translate(285.874,-788.236)">
			<title>工作表.120</title>
			<desc>5</desc>
			<v:textBlock v:margins="rect(4,4,4,4)" v:tabSpace="42.5197"/>
			<v:textRect cx="10.6299" cy="1144.55" width="21.26" height="20"/>
			<rect x="0" y="1134.55" width="21.2598" height="20" class="st7"/>
			<text x="7.59" y="1148.15" class="st8" v:langID="2052"><v:paragraph v:horizAlign="1"/><v:tabList/>5</text>		</g>
		<g id="shape121-340" v:mID="121" v:groupContext="shape" transform="translate(307.468,-788.724)">
			<title>工作表.121</title>
			<desc>6</desc>
			<v:textBlock v:margins="rect(4,4,4,4)" v:tabSpace="42.5197"/>
			<v:textRect cx="10.6299" cy="1144.55" width="21.26" height="20"/>
			<rect x="0" y="1134.55" width="21.2598" height="20" class="st7"/>
			<text x="7.59" y="1148.15" class="st8" v:langID="2052"><v:paragraph v:horizAlign="1"/><v:tabList/>6</text>		</g>
		<g id="shape122-343" v:mID="122" v:groupContext="shape" transform="translate(432.283,-784.787)">
			<title>工作表.122</title>
			<desc>31</desc>
			<v:textBlock v:margins="rect(4,4,4,4)" v:tabSpace="42.5197"/>
			<v:textRect cx="10.6299" cy="1144.55" width="21.26" height="20"/>
			<rect x="0" y="1134.55" width="21.2598" height="20" class="st7"/>
			<text x="4.55" y="1148.15" class="st8" v:langID="2052"><v:paragraph v:horizAlign="1"/><v:tabList/>31</text>		</g>
		<g id="shape123-346" v:mID="123" v:groupContext="shape" transform="translate(453.543,-784.551)">
			<title>工作表.123</title>
			<desc>32</desc>
			<v:textBlock v:margins="rect(4,4,4,4)" v:tabSpace="42.5197"/>
			<v:textRect cx="10.6299" cy="1144.55" width="21.26" height="20"/>
			<rect x="0" y="1134.55" width="21.2598" height="20" class="st7"/>
			<text x="4.55" y="1148.15" class="st8" v:langID="2052"><v:paragraph v:horizAlign="1"/><v:tabList/>32</text>		</g>
		<g id="shape125-349" v:mID="125" v:groupContext="shape" transform="translate(268.693,-384.866)">
			<title>工作表.125</title>
			<desc>lengthOfOpa</desc>
			<v:textBlock v:margins="rect(4,4,4,4)" v:tabSpace="42.5197"/>
			<v:textRect cx="47.0709" cy="1144.55" width="94.15" height="20"/>
			<rect x="0" y="1134.55" width="94.1417" height="20" class="st7"/>
			<text x="15.77" y="1148.15" class="st8" v:langID="2052"><v:paragraph v:horizAlign="1"/><v:tabList/>lengthOfOpa</text>		</g>
		<g id="shape126-352" v:mID="126" v:groupContext="shape" transform="translate(1432.35,328.819) rotate(90)">
			<title>工作表.126</title>
			<path d="M0 1154.55 L13.49 1154.55" class="st12"/>
		</g>
		<g id="shape127-357" v:mID="127" v:groupContext="shape" transform="translate(248.85,-825.732)">
			<title>工作表.127</title>
			<desc>op</desc>
			<v:textBlock v:margins="rect(4,4,4,4)" v:tabSpace="42.5197"/>
			<v:textRect cx="31.7795" cy="1144.55" width="63.56" height="20"/>
			<rect x="0" y="1134.55" width="63.5591" height="20" class="st7"/>
			<text x="25.46" y="1148.15" class="st8" v:langID="2052"><v:paragraph v:horizAlign="1"/><v:tabList/>op</text>		</g>
		<g id="shape128-360" v:mID="128" v:groupContext="shape" transform="translate(17.0079,-706.677)">
			<title>工作表.128</title>
			<path d="M0 1154.55 L504.57 1154.55" class="st13"/>
		</g>
		<g id="shape129-363" v:mID="129" v:groupContext="shape" transform="translate(17.0079,-621.638)">
			<title>工作表.129</title>
			<path d="M0 1154.55 L504.57 1154.55" class="st13"/>
		</g>
		<g id="shape131-366" v:mID="131" v:groupContext="shape" transform="translate(17.0079,-547.937)">
			<title>工作表.131</title>
			<path d="M0 1154.55 L504.57 1154.55" class="st13"/>
		</g>
		<g id="shape132-369" v:mID="132" v:groupContext="shape" transform="translate(17.0079,-479.906)">
			<title>工作表.132</title>
			<path d="M0 1154.55 L504.57 1154.55" class="st13"/>
		</g>
	</g>
</svg>
