<?xml version="1.0" encoding="UTF-8" standalone="no"?>
<!DOCTYPE svg PUBLIC "-//W3C//DTD SVG 1.1//EN" "http://www.w3.org/Graphics/SVG/1.1/DTD/svg11.dtd">
<!-- 由 Microsoft Visio, SVG Export 生成 32bit_most_common_divisor.svg Page-1 -->
<svg xmlns="http://www.w3.org/2000/svg" xmlns:xlink="http://www.w3.org/1999/xlink" xmlns:ev="http://www.w3.org/2001/xml-events"
		xmlns:v="http://schemas.microsoft.com/visio/2003/SVGExtensions/" width="11.6929in" height="8.26772in"
		viewBox="0 0 841.89 595.276" xml:space="preserve" color-interpolation-filters="sRGB" class="st9">
	<v:documentProperties v:langID="2052" v:metric="true" v:viewMarkup="false">
		<v:userDefs>
			<v:ud v:nameU="msvSubprocessMaster" v:prompt="" v:val="VT4(Rectangle)"/>
			<v:ud v:nameU="msvNoAutoConnect" v:val="VT0(1):26"/>
		</v:userDefs>
	</v:documentProperties>

	<style type="text/css">
	<![CDATA[
		.st1 {fill:#ffffff;stroke:#41719c;stroke-width:0.75}
		.st2 {fill:#41719c;font-family:Calibri;font-size:0.499992em}
		.st3 {font-size:1em}
		.st4 {stroke:#5b9bd5;stroke-linecap:round;stroke-linejoin:round;stroke-width:1}
		.st5 {fill:#ffffff;stroke:#5b9bd5;stroke-width:0.75}
		.st6 {fill:#ffffff;stroke:#5b9bd5;stroke-width:1.5}
		.st7 {fill:none;stroke:none;stroke-width:0.25}
		.st8 {fill:#5b9bd5;font-family:Calibri;font-size:0.499992em}
		.st9 {fill:none;fill-rule:evenodd;font-size:12px;overflow:visible;stroke-linecap:square;stroke-miterlimit:3}
	]]>
	</style>

	<g v:mID="0" v:index="1" v:groupContext="foregroundPage">
		<v:userDefs>
			<v:ud v:nameU="msvThemeOrder" v:val="VT0(0):26"/>
		</v:userDefs>
		<title>页-1</title>
		<v:pageProperties v:drawingScale="0.0393701" v:pageScale="0.0393701" v:drawingUnits="24" v:shadowOffsetX="8.50394"
				v:shadowOffsetY="-8.50394"/>
		<v:layer v:name="电气" v:index="0"/>
		<g id="shape38-1" v:mID="38" v:groupContext="shape" transform="translate(291.969,-239.528)">
			<title>矩形</title>
			<desc>32bit Most common divisor</desc>
			<v:userDefs>
				<v:ud v:nameU="visVersion" v:val="VT0(15):26"/>
			</v:userDefs>
			<v:textBlock v:margins="rect(4,4,4,4)" v:tabSpace="42.5197"/>
			<v:textRect cx="24.0945" cy="562.677" width="48.19" height="65.1969"/>
			<rect x="0" y="530.079" width="48.189" height="65.1969" class="st1"/>
			<text x="17.78" y="557.28" class="st2" v:langID="2052"><v:paragraph v:horizAlign="1"/><v:tabList/>32bit<v:newlineChar/><tspan
						x="6.29" dy="1.2em" class="st3">Most common<v:newlineChar/></tspan><tspan x="15.99" dy="1.2em" class="st3">divisor</tspan></text>		</g>
		<g id="shape39-6" v:mID="39" v:groupContext="shape" transform="translate(887.244,296.22) rotate(90)">
			<title>三角形</title>
			<v:userDefs>
				<v:ud v:nameU="visVersion" v:val="VT0(15):26"/>
			</v:userDefs>
			<path d="M7.37 595.28 L3.69 587.91 L0 595.28 L7.37 595.28 Z" class="st1"/>
		</g>
		<g id="shape40-8" v:mID="40" v:groupContext="shape" transform="translate(291.969,894.331) rotate(180)">
			<title>工作表.40</title>
			<path d="M0 595.28 L14.17 595.28" class="st4"/>
		</g>
		<g id="shape41-11" v:mID="41" v:groupContext="shape" transform="translate(291.969,905.669) rotate(180)">
			<title>工作表.41</title>
			<path d="M0 595.28 L14.17 595.28" class="st4"/>
		</g>
		<g id="shape42-14" v:mID="42" v:groupContext="shape" transform="translate(291.969,916.252) rotate(180)">
			<title>工作表.42</title>
			<path d="M0 595.28 L14.17 595.28" class="st4"/>
		</g>
		<g id="shape43-17" v:mID="43" v:groupContext="shape" transform="translate(291.969,928.346) rotate(180)">
			<title>工作表.43</title>
			<path d="M0 595.28 L14.62 595.28" class="st4"/>
		</g>
		<g id="shape44-20" v:mID="44" v:groupContext="shape" transform="translate(291.969,941.386) rotate(180)">
			<title>工作表.44</title>
			<path d="M0 595.28 L14.17 595.28" class="st4"/>
		</g>
		<g id="shape45-23" v:mID="45" v:groupContext="shape" transform="translate(261.496,-293.197)">
			<title>工作表.45</title>
			<path d="M0 595.09 L0 589.42 L12.47 589.42 L15.59 592.54 L12.85 595.28 L0 595.09 Z" class="st5"/>
		</g>
		<g id="shape46-25" v:mID="46" v:groupContext="shape" transform="translate(261.496,-282.047)">
			<title>工作表.46</title>
			<path d="M0 595.09 L0 589.42 L12.47 589.42 L15.59 592.54 L12.85 595.28 L0 595.09 Z" class="st5"/>
		</g>
		<g id="shape47-27" v:mID="47" v:groupContext="shape" transform="translate(261.496,-270.898)">
			<title>工作表.47</title>
			<path d="M0 595.09 L0 589.42 L12.47 589.42 L15.59 592.54 L12.85 595.28 L0 595.09 Z" class="st5"/>
		</g>
		<g id="shape48-29" v:mID="48" v:groupContext="shape" transform="translate(261.496,-259.748)">
			<title>工作表.48</title>
			<path d="M0 595.09 L0 589.42 L12.47 589.42 L15.59 592.54 L12.85 595.28 L0 595.09 Z" class="st6"/>
		</g>
		<g id="shape49-31" v:mID="49" v:groupContext="shape" transform="translate(261.496,-246.425)">
			<title>工作表.49</title>
			<path d="M0 595.09 L0 589.42 L12.47 589.42 L15.59 592.54 L12.85 595.28 L0 595.09 Z" class="st6"/>
		</g>
		<g id="shape50-33" v:mID="50" v:groupContext="shape" transform="translate(340.157,-286.583)">
			<title>工作表.50</title>
			<path d="M0 595.28 L22.68 595.28" class="st4"/>
		</g>
		<g id="shape51-36" v:mID="51" v:groupContext="shape" transform="translate(340.157,-256.535)">
			<title>工作表.51</title>
			<path d="M0 595.28 L22.68 595.28" class="st4"/>
		</g>
		<g id="shape66-39" v:mID="66" v:groupContext="shape" transform="translate(363.543,-283.276)">
			<title>工作表.66</title>
			<path d="M0 595.09 L0 589.42 L12.47 589.42 L15.59 592.54 L12.85 595.28 L0 595.09 Z" class="st6"/>
		</g>
		<g id="shape67-41" v:mID="67" v:groupContext="shape" transform="translate(363.543,-253.417)">
			<title>工作表.67</title>
			<path d="M0 595.09 L0 589.42 L12.47 589.42 L15.59 592.54 L12.85 595.28 L0 595.09 Z" class="st5"/>
		</g>
		<g id="shape68-43" v:mID="68" v:groupContext="shape" transform="translate(239.528,-293.197)">
			<title>工作表.68</title>
			<desc>CLK</desc>
			<v:textBlock v:margins="rect(4,4,4,4)" v:tabSpace="42.5197"/>
			<v:textRect cx="9.92126" cy="591.591" width="19.85" height="7.37008"/>
			<rect x="0" y="587.906" width="19.8425" height="7.37008" class="st7"/>
			<text x="5.5" y="593.39" class="st8" v:langID="2052"><v:paragraph v:horizAlign="1"/><v:tabList/>CLK</text>		</g>
		<g id="shape69-46" v:mID="69" v:groupContext="shape" transform="translate(235.276,-281.291)">
			<title>工作表.69</title>
			<desc>START</desc>
			<v:textBlock v:margins="rect(4,4,4,4)" v:tabSpace="42.5197"/>
			<v:textRect cx="12.0472" cy="591.591" width="24.1" height="7.37008"/>
			<rect x="0" y="587.906" width="24.0945" height="7.37008" class="st7"/>
			<text x="4.38" y="593.39" class="st8" v:langID="2052"><v:paragraph v:horizAlign="1"/><v:tabList/>START</text>		</g>
		<g id="shape70-49" v:mID="70" v:groupContext="shape" transform="translate(235.276,-270.142)">
			<title>工作表.70</title>
			<desc>RESET</desc>
			<v:textBlock v:margins="rect(4,4,4,4)" v:tabSpace="42.5197"/>
			<v:textRect cx="12.0472" cy="591.591" width="24.1" height="7.37008"/>
			<rect x="0" y="587.906" width="24.0945" height="7.37008" class="st7"/>
			<text x="4.65" y="593.39" class="st8" v:langID="2052"><v:paragraph v:horizAlign="1"/><v:tabList/>RESET</text>		</g>
		<g id="shape71-52" v:mID="71" v:groupContext="shape" transform="translate(225.638,-258.992)">
			<title>工作表.71</title>
			<desc>OPA[31:0]</desc>
			<v:textBlock v:margins="rect(4,4,4,4)" v:tabSpace="42.5197"/>
			<v:textRect cx="16.8661" cy="591.591" width="33.74" height="7.37008"/>
			<rect x="0" y="587.906" width="33.7323" height="7.37008" class="st7"/>
			<text x="4.39" y="593.39" class="st8" v:langID="2052"><v:paragraph v:horizAlign="1"/><v:tabList/>OPA[31:0]</text>		</g>
		<g id="shape72-55" v:mID="72" v:groupContext="shape" transform="translate(225.638,-245.669)">
			<title>工作表.72</title>
			<desc>OPB[31:0]</desc>
			<v:textBlock v:margins="rect(4,4,4,4)" v:tabSpace="42.5197"/>
			<v:textRect cx="16.8661" cy="591.591" width="33.74" height="7.37008"/>
			<rect x="0" y="587.906" width="33.7323" height="7.37008" class="st7"/>
			<text x="4.49" y="593.39" class="st8" v:langID="2052"><v:paragraph v:horizAlign="1"/><v:tabList/>OPB[31:0]</text>		</g>
		<g id="shape73-58" v:mID="73" v:groupContext="shape" transform="translate(377.15,-282.52)">
			<title>工作表.73</title>
			<desc>RESULT[31:0]</desc>
			<v:textBlock v:margins="rect(4,4,4,4)" v:tabSpace="42.5197"/>
			<v:textRect cx="21.189" cy="591.591" width="42.38" height="7.37008"/>
			<rect x="0" y="587.906" width="42.378" height="7.37008" class="st7"/>
			<text x="4.86" y="593.39" class="st8" v:langID="2052"><v:paragraph v:horizAlign="1"/><v:tabList/>RESULT[31:0]</text>		</g>
		<g id="shape74-61" v:mID="74" v:groupContext="shape" transform="translate(368.646,-252.661)">
			<title>工作表.74</title>
			<desc>DONE</desc>
			<v:textBlock v:margins="rect(4,4,4,4)" v:tabSpace="42.5197"/>
			<v:textRect cx="21.189" cy="591.591" width="42.38" height="7.37008"/>
			<rect x="0" y="587.906" width="42.378" height="7.37008" class="st7"/>
			<text x="13.96" y="593.39" class="st8" v:langID="2052"><v:paragraph v:horizAlign="1"/><v:tabList/>DONE</text>		</g>
	</g>
</svg>
